# xmcd
#
# Track frame offsets:
# 150
# 17723
# 30425
# 43020
# 59378
# 74710
# 90018
# 104363
# 119358
# 134203
# 150908
# 164903
# 179413
# 195498
# 208718
# 221915
# 235723
# 248223
# 260640
# 274313
# 289658
# 303935
# 317390
#
# Disc length: 4421 seconds
#
# Revision: 0
# Processed by: cddbd v1.5PL3 Copyright (c) Steve Scherf et al.
# Submitted via: plextools 2.08
#
DISCID=54114317
DTITLE=Ingmar Nordströms - Collection
DYEAR=1900
DGENRE=Misc
TTITLE0=Ingmar Nordströms - För Alltid Och Evigt
TTITLE1=Ingmar Nordströms - Stranger On The Shore
TTITLE2=Ingmar Nordströms - Linda
TTITLE3=Ingmar Nordströms - Copacabana
TTITLE4=Ingmar Nordströms - I Have A Dream
TTITLE5=Ingmar Nordströms - Nu Vill Jag Va' Fri
TTITLE6=Ingmar Nordströms - One Way Ticket
TTITLE7=Ingmar Nordströms - Aloha-oe
TTITLE8=Ingmar Nordströms - Amor
TTITLE9=Ingmar Nordströms - En Kvinna, Ett Barn Och En Man
TTITLE10=Ingmar Nordströms - Samarkand
TTITLE11=Ingmar Nordströms - Americam Patrol
TTITLE12=Ingmar Nordströms - Till Alla Dom Som Jag Höll Av
TTITLE13=Ingmar Nordströms - Det Kallas För Kärlek
TTITLE14=Ingmar Nordströms - La Paloma
TTITLE15=Ingmar Nordströms - En Promenad Med Dej
TTITLE16=Ingmar Nordströms - Silvermåne Över Bergen
TTITLE17=Ingmar Nordströms - Säg Det Om Igen
TTITLE18=Ingmar Nordströms - Livet Är Härligt Att Leva
TTITLE19=Ingmar Nordströms - Tack För Att Du Finns
TTITLE20=Ingmar Nordströms - O Sole Mio
TTITLE21=Ingmar Nordströms - Sommarmorgon
TTITLE22=Ingmar Nordströms - Öresund
EXTD=
EXTT0=
EXTT1=
EXTT2=
EXTT3=
EXTT4=
EXTT5=
EXTT6=
EXTT7=
EXTT8=
EXTT9=
EXTT10=
EXTT11=
EXTT12=
EXTT13=
EXTT14=
EXTT15=
EXTT16=
EXTT17=
EXTT18=
EXTT19=
EXTT20=
EXTT21=
EXTT22=
PLAYORDER=
